<?xml version="1.0" encoding="UTF-8"?>
<svg width="237px" height="53px" viewBox="0 0 237 53" version="1.1" xmlns="http://www.w3.org/2000/svg" xmlns:xlink="http://www.w3.org/1999/xlink">
    <!-- Generator: Sketch 61.2 (89653) - https://sketch.com -->
    <title>bitsong_logo_light</title>
    <desc>Created with Sketch.</desc>
    <g id="Page-1" stroke="none" stroke-width="1" fill="none" fill-rule="evenodd">
        <g id="bitsong_logo_light" fill-rule="nonzero">
            <g id="g18" transform="translate(65.300000, 9.500000)" fill="#000000" fill-opacity="0.87">
                <path d="M0.9,2.9 C0.9,2.2 1.2,1.6 1.7,1.1 C2.2,0.6 2.8,0.3 3.6,0.3 C4.3,0.3 4.9,0.6 5.5,1.1 C6,1.6 6.3,2.2 6.3,2.9 L6.3,10.4 C8.5,8.8 11,8 13.9,8 C17.5,8 20.5,9.2 23,11.7 C25.5,14.2 26.8,17.2 26.8,20.7 C26.8,24.2 25.5,27.2 23,29.7 C20.5,32.2 17.5,33.4 13.9,33.4 C10.3,33.4 7.3,32.2 4.8,29.7 C2.3,27.3 1.1,24.3 1,20.8 L0.9,2.9 Z M8.4,26 C9.9,27.5 11.7,28.2 13.8,28.2 C15.9,28.2 17.7,27.5 19.2,26 C20.7,24.5 21.4,22.7 21.4,20.7 C21.4,18.6 20.7,16.8 19.2,15.3 C17.7,13.8 15.9,13.1 13.8,13.1 C11.7,13.1 9.9,13.8 8.4,15.3 C7.1,16.6 6.4,18 6.2,19.7 L6.2,20.7 C6.2,20.9 6.2,21 6.2,21.2 C6.3,23.1 7,24.7 8.4,26 Z" id="path4"></path>
                <path d="M34.5,5.4 C33.8,5.4 33.2,5.1 32.6,4.6 C32.1,4.1 31.8,3.5 31.8,2.8 C31.8,2.1 32.1,1.5 32.6,1 C33.1,0.5 33.7,0.2 34.5,0.2 C35.2,0.2 35.8,0.5 36.4,1 C37,1.5 37.2,2.1 37.2,2.8 C37.2,3.5 36.9,4.1 36.4,4.6 C35.9,5.1 35.2,5.4 34.5,5.4 Z M34.5,33.4 C33.8,33.4 33.2,33.1 32.6,32.6 C32.1,32.1 31.8,31.5 31.8,30.8 L31.8,10.4 C31.8,9.7 32.1,9.1 32.6,8.6 C33.1,8.1 33.7,7.8 34.5,7.8 C35.2,7.8 35.8,8.1 36.4,8.6 C36.9,9.1 37.2,9.7 37.2,10.4 L37.2,30.8 C37.2,31.5 36.9,32.1 36.4,32.6 C35.9,33.1 35.3,33.4 34.5,33.4 L34.5,33.4 Z" id="path6"></path>
                <path d="M48.3,7.8 L48.3,3 C48.3,2.3 48.6,1.7 49.1,1.2 C49.6,0.7 50.2,0.4 51,0.4 C51.7,0.4 52.3,0.7 52.9,1.2 C53.4,1.7 53.7,2.3 53.7,3 L53.7,7.8 L56.6,7.8 C57.3,7.8 57.9,8.1 58.5,8.6 C59,9.1 59.3,9.7 59.3,10.4 C59.3,11.1 59,11.7 58.5,12.2 C58,12.7 57.4,13 56.6,13 L53.7,13 L53.7,30.7 C53.7,31.4 53.4,32 52.9,32.5 C52.4,33 51.8,33.3 51,33.3 C50.3,33.3 49.7,33 49.1,32.5 C48.6,32 48.3,31.4 48.3,30.7 L48.3,13 L45.3,13 C44.6,13 44,12.7 43.4,12.2 C42.9,11.7 42.6,11.1 42.6,10.4 C42.6,9.7 42.9,9.1 43.4,8.6 C43.9,8.1 44.5,7.8 45.3,7.8 L48.3,7.8 Z" id="path8"></path>
                <path d="M69.6,7.9 C70.3,7.9 70.9,8.1 71.4,8.6 C71.9,9.1 72.1,9.7 72.1,10.4 C72.1,11.1 71.9,11.7 71.4,12.2 C70.9,12.7 70.3,13 69.6,13 C69.2,13 68.9,13.1 68.7,13.4 C68.5,13.6 68.3,13.9 68.3,14.3 C68.3,14.7 68.4,15 68.7,15.2 C68.9,15.4 69.3,15.6 69.6,15.6 C72.1,15.6 74.2,16.5 76,18.2 C77.8,19.9 78.6,22 78.6,24.5 C78.6,27 77.7,29.1 76,30.8 C74.2,32.5 72.1,33.4 69.6,33.4 C67.1,33.4 65,32.5 63.2,30.8 C61.4,29.1 60.6,27 60.6,24.5 C60.6,23.8 60.9,23.2 61.4,22.7 C61.9,22.2 62.5,22 63.2,22 C63.9,22 64.5,22.2 65,22.7 C65.5,23.2 65.7,23.8 65.7,24.5 C65.7,25.6 66.1,26.5 66.8,27.2 C67.5,27.9 68.5,28.3 69.5,28.3 C70.6,28.3 71.5,27.9 72.2,27.2 C73,26.5 73.3,25.6 73.3,24.5 C73.3,23.4 72.9,22.5 72.2,21.8 C71.4,21.1 70.5,20.7 69.5,20.7 C67.7,20.7 66.2,20.1 64.9,18.8 C63.6,17.6 63,16.1 63,14.3 C63,12.5 63.6,11 64.9,9.8 C66.3,8.5 67.8,7.9 69.6,7.9 L69.6,7.9 Z" id="path10"></path>
                <path d="M105.8,11.6 C108.3,14.1 109.6,17.1 109.6,20.6 C109.6,24.1 108.3,27.1 105.8,29.6 C103.3,32.1 100.3,33.3 96.7,33.3 C93.1,33.3 90.1,32.1 87.6,29.6 C85.1,27.1 83.8,24.1 83.8,20.6 C83.8,17.1 85.1,14.1 87.6,11.6 C90.1,9.1 93.1,7.9 96.7,7.9 C100.2,7.9 103.2,9.2 105.8,11.6 L105.8,11.6 Z M96.7,13.1 C94.6,13.1 92.8,13.8 91.3,15.3 C89.8,16.8 89.1,18.6 89.1,20.6 C89.1,22.7 89.8,24.5 91.3,26 C92.8,27.5 94.6,28.2 96.7,28.2 C98.8,28.2 100.6,27.5 102.1,26 C103.6,24.5 104.3,22.7 104.3,20.6 C104.3,18.5 103.6,16.7 102.1,15.3 C100.6,13.8 98.8,13.1 96.7,13.1 Z" id="path12"></path>
                <path d="M127.9,7.9 C131.5,8.1 134.5,9.4 136.8,11.7 C139.3,14.1 140.5,17.1 140.6,20.6 L140.6,30.4 C140.6,31.4 140.3,32.1 139.8,32.6 C139.3,33.1 138.7,33.4 137.9,33.4 C137.2,33.4 136.6,33.1 136,32.6 C135.5,32.1 135.2,31.4 135.2,30.4 L135.2,20.6 C135.2,20.4 135.2,20.3 135.2,20.1 C135.1,18.2 134.4,16.6 133,15.3 C131.5,13.8 129.7,13.1 127.6,13.1 L127.5,13.1 C125.4,13.1 123.6,13.8 122.1,15.3 C120.7,16.6 120,18.2 119.9,20.1 C119.9,20.3 119.9,20.4 119.9,20.6 L119.9,30.4 C119.9,31.4 119.6,32.1 119.1,32.6 C118.6,33.1 118,33.4 117.2,33.4 C116.5,33.4 115.9,33.1 115.3,32.6 C114.8,32.1 114.5,31.3 114.5,30.4 L114.5,20.6 C114.5,17.1 115.8,14.2 118.3,11.7 C120.6,9.4 123.6,8.1 127.2,7.9 L127.9,7.9 Z" id="path14"></path>
                <path d="M166.2,30.9 C164,32.5 161.5,33.3 158.6,33.3 C155,33.3 152,32.1 149.5,29.6 C147,27.1 145.7,24.1 145.7,20.6 C145.7,17.1 147,14.1 149.5,11.6 C152,9.1 155,7.9 158.6,7.9 C162.2,7.9 165.2,9.1 167.7,11.6 C170.2,14.1 171.5,17.1 171.5,20.6 L171.5,20.6 L171.5,30.7 C171.5,30.8 171.5,31 171.5,31.1 C171.4,34.5 170.2,37.4 167.7,39.8 C165.2,42.3 162.2,43.5 158.6,43.5 L158.5,43.5 C157.8,43.5 157.2,43.2 156.6,42.7 C156,42.2 155.8,41.6 155.8,40.9 C155.8,40.2 156.1,39.6 156.6,39.1 C157.1,38.6 157.7,38.3 158.5,38.3 C158.6,38.3 158.7,38.3 158.9,38.3 C160.9,38.2 162.6,37.5 164.1,36.1 C165.5,34.7 166.2,32.9 166.2,30.9 L166.2,30.9 Z M158.6,13 C156.5,13 154.7,13.7 153.2,15.2 C151.7,16.7 151,18.5 151,20.5 C151,22.6 151.7,24.4 153.2,25.9 C154.7,27.4 156.5,28.1 158.6,28.1 C160.7,28.1 162.5,27.4 164,25.9 C165.5,24.4 166.2,22.6 166.2,20.5 C166.2,18.4 165.5,16.6 164,15.2 C162.5,13.8 160.7,13 158.6,13 Z" id="path16"></path>
            </g>
            <path d="M26.6,0 C24.6,0 22.6,0.2 20.6,0.7 C20.6,0.8 20.6,0.9 20.6,1 L20.6,33.5 C20.6,34.2 20,34.7 19.4,34.7 L17,34.7 C16.5,34.7 16.1,34.3 16.1,33.8 L16.1,2.1 C6.6,6.1 0,15.5 0,26.3 C0,40.9 11.9,52.7 26.7,52.7 C41.3,52.7 53.3,40.9 53.3,26.4 C53.3,11.8 41.3,0 26.6,0 Z M26.1,37.3 C26.1,37.9 25.6,38.4 25,38.4 L22.6,38.4 C22,38.4 21.5,37.9 21.5,37.3 L21.5,20.6 C21.5,20 22,19.5 22.6,19.5 L25,19.5 C25.6,19.5 26.1,20 26.1,20.6 L26.1,37.3 Z M31.5,38.9 C31.5,39.5 31,40 30.4,40 L28,40 C27.4,40 26.9,39.5 26.9,38.9 L26.9,19 C26.9,18.4 27.4,17.9 28,17.9 L30.4,17.9 C31,17.9 31.5,18.4 31.5,19 L31.5,38.9 Z M36.9,35.9 C36.9,36.5 36.4,37 35.8,37 L33.4,37 C32.8,37 32.3,36.5 32.3,35.9 L32.3,22.2 C32.3,21.6 32.8,21.1 33.4,21.1 L35.8,21.1 C36.4,21.1 36.9,21.6 36.9,22.2 L36.9,35.9 Z" id="path20" fill="#D32F2F"></path>
        </g>
    </g>
</svg>